<svg width="32" height="32" viewBox="0 0 32 32" fill="none" xmlns="http://www.w3.org/2000/svg">
<path d="M12.5 10.5C12.5 10.1022 12.658 9.72066 12.9393 9.43936C13.2206 9.15805 13.6022 9.00002 14 9.00002H18C18.3978 9.00002 18.7794 9.15805 19.0607 9.43936C19.342 9.72066 19.5 10.1022 19.5 10.5C19.5 10.8978 19.342 11.2794 19.0607 11.5607C18.7794 11.842 18.3978 12 18 12H14C13.6022 12 13.2206 11.842 12.9393 11.5607C12.658 11.2794 12.5 10.8978 12.5 10.5ZM31.5 25C31.5 25.3978 31.342 25.7794 31.0607 26.0607C30.7794 26.342 30.3978 26.5 30 26.5H2C1.60217 26.5 1.22064 26.342 0.939337 26.0607C0.658033 25.7794 0.499998 25.3978 0.499998 25C0.499998 24.6022 0.658033 24.2207 0.939337 23.9394C1.22064 23.6581 1.60217 23.5 2 23.5H2.5V17.4138C2.19887 17.5207 1.87148 17.5286 1.56553 17.4364C1.25958 17.3442 0.99106 17.1568 0.799095 16.9013C0.60713 16.6459 0.501752 16.3358 0.498317 16.0163C0.494882 15.6968 0.593568 15.3845 0.779997 15.125L5.78 8.12502C5.88045 7.98371 6.00482 7.86103 6.1475 7.76252L14.5925 1.93127L14.6137 1.91752C15.0239 1.643 15.5064 1.49646 16 1.49646C16.4936 1.49646 16.976 1.643 17.3862 1.91752L17.4075 1.93127L25.8525 7.76252C25.9952 7.86103 26.1195 7.98371 26.22 8.12502L31.22 15.125C31.4064 15.3845 31.5051 15.6968 31.5017 16.0163C31.4982 16.3358 31.3929 16.6459 31.2009 16.9013C31.0089 17.1568 30.7404 17.3442 30.4345 17.4364C30.1285 17.5286 29.8011 17.5207 29.5 17.4138V23.5H30C30.3978 23.5 30.7794 23.6581 31.0607 23.9394C31.342 24.2207 31.5 24.6022 31.5 25ZM5.5 23.5H8V15.5C8 15.1022 8.15803 14.7207 8.43934 14.4394C8.72064 14.1581 9.10217 14 9.5 14H22.5C22.8978 14 23.2794 14.1581 23.5607 14.4394C23.842 14.7207 24 15.1022 24 15.5V23.5H26.5V13.6813L23.9312 10.0863L16 4.60877L8.06875 10.0863L5.5 13.6813V23.5ZM21 17H14.2375L21 21.7588V17ZM11 23.5H18.2625L11 18.39V23.5Z" fill="#4F627E"/>
</svg>
