<svg width="24" height="24" viewBox="0 0 24 24" fill="none" xmlns="http://www.w3.org/2000/svg">
<path d="M19.5 4.12511C18.4162 4.12404 17.3419 4.32826 16.3341 4.72699C14.8528 2.43949 12.6103 1.29761 12.5034 1.24417C12.3471 1.16596 12.1748 1.12524 12 1.12524C11.8252 1.12524 11.6529 1.16596 11.4966 1.24417C11.3897 1.29761 9.14719 2.43949 7.66594 4.72699C6.65809 4.32826 5.58385 4.12404 4.5 4.12511C4.20163 4.12511 3.91548 4.24364 3.7045 4.45462C3.49353 4.6656 3.375 4.95174 3.375 5.25011V9.00011C3.37765 11.0921 4.13937 13.112 5.51871 14.6848C6.89805 16.2576 8.80129 17.2764 10.875 17.552V19.9295L8.00344 18.4942C7.73725 18.3657 7.43122 18.3472 7.15149 18.4426C6.87176 18.538 6.6408 18.7396 6.50853 19.0039C6.37626 19.2682 6.3533 19.5739 6.44462 19.855C6.53595 20.1361 6.73421 20.37 6.99656 20.5061L11.4966 22.7561C11.6529 22.8343 11.8252 22.875 12 22.875C12.1748 22.875 12.3471 22.8343 12.5034 22.7561L17.0034 20.5061C17.1377 20.4413 17.2578 20.3504 17.3567 20.2388C17.4555 20.1272 17.5312 19.997 17.5794 19.8559C17.6275 19.7148 17.6471 19.5655 17.637 19.4167C17.6269 19.268 17.5873 19.1227 17.5206 18.9893C17.4539 18.856 17.3613 18.7372 17.2483 18.64C17.1352 18.5428 17.004 18.4689 16.8622 18.4229C16.7204 18.3768 16.5708 18.3594 16.4222 18.3716C16.2736 18.3839 16.1289 18.4255 15.9966 18.4942L13.125 19.9295V17.552C15.1987 17.2764 17.1019 16.2576 18.4813 14.6848C19.8606 13.112 20.6223 11.0921 20.625 9.00011V5.25011C20.625 4.95174 20.5065 4.6656 20.2955 4.45462C20.0845 4.24364 19.7984 4.12511 19.5 4.12511ZM12 3.55699C12.5972 3.94699 13.6059 4.71105 14.3634 5.82574C13.3995 6.5424 12.5947 7.45124 12 8.4948C11.405 7.45144 10.6002 6.54266 9.63656 5.82574C10.3941 4.71105 11.4028 3.94699 12 3.55699ZM5.625 9.00011V6.47449C7.09639 6.74034 8.42782 7.51411 9.38722 8.66094C10.3466 9.80776 10.8731 11.2549 10.875 12.7501V15.2757C9.40369 15.0097 8.07237 14.2359 7.113 13.0891C6.15363 11.9423 5.62704 10.4953 5.625 9.00011ZM18.375 9.00011C18.373 10.4953 17.8464 11.9423 16.887 13.0891C15.9276 14.2359 14.5963 15.0097 13.125 15.2757V12.7501C13.1269 11.2549 13.6534 9.80776 14.6128 8.66094C15.5722 7.51411 16.9036 6.74034 18.375 6.47449V9.00011Z" fill="#4F627E"/>
</svg>
