<svg width="28" height="28" viewBox="0 0 28 28" fill="none" xmlns="http://www.w3.org/2000/svg">
<path d="M25.4286 6.07146L21.9286 2.57146C21.8067 2.4491 21.6618 2.35201 21.5022 2.28577C21.3427 2.21952 21.1716 2.18542 20.9989 2.18542C20.8262 2.18542 20.6551 2.21952 20.4956 2.28577C20.336 2.35201 20.1912 2.4491 20.0692 2.57146L9.56922 13.0715C9.32394 13.3182 9.18665 13.6522 9.1875 14.0001V17.5001C9.1875 17.8482 9.32578 18.182 9.57192 18.4281C9.81806 18.6743 10.1519 18.8126 10.5 18.8126H14C14.1724 18.8127 14.3432 18.7789 14.5025 18.713C14.6618 18.6471 14.8066 18.5505 14.9286 18.4286L25.4286 7.92865C25.5506 7.80675 25.6474 7.662 25.7135 7.50266C25.7795 7.34333 25.8135 7.17254 25.8135 7.00005C25.8135 6.82757 25.7795 6.65678 25.7135 6.49744C25.6474 6.33811 25.5506 6.19336 25.4286 6.07146ZM21 5.35943L22.6406 7.00005L21.4375 8.20318L19.7969 6.56255L21 5.35943ZM13.4531 16.1876H11.8125V14.5469L17.9375 8.42193L19.5781 10.0626L13.4531 16.1876ZM24.9375 15.3749V22.7501C24.9375 23.3302 24.707 23.8866 24.2968 24.2968C23.8866 24.7071 23.3302 24.9376 22.75 24.9376H5.25C4.66984 24.9376 4.11344 24.7071 3.7032 24.2968C3.29297 23.8866 3.0625 23.3302 3.0625 22.7501V5.25005C3.0625 4.66989 3.29297 4.11349 3.7032 3.70326C4.11344 3.29302 4.66984 3.06255 5.25 3.06255H12.6252C12.9733 3.06255 13.3071 3.20083 13.5532 3.44698C13.7994 3.69312 13.9377 4.02696 13.9377 4.37505C13.9377 4.72315 13.7994 5.05699 13.5532 5.30313C13.3071 5.54927 12.9733 5.68755 12.6252 5.68755H5.6875V22.3126H22.3125V15.3749C22.3125 15.0268 22.4508 14.693 22.6969 14.4468C22.9431 14.2007 23.2769 14.0624 23.625 14.0624C23.9731 14.0624 24.3069 14.2007 24.5531 14.4468C24.7992 14.693 24.9375 15.0268 24.9375 15.3749Z" fill="#F5F5F5"/>
</svg>
