<svg width="20" height="20" viewBox="0 0 20 20" fill="none" xmlns="http://www.w3.org/2000/svg">
<path d="M18.75 11.5623H15.9289C15.9344 11.4584 15.9375 11.3545 15.9375 11.2498C15.9375 9.6751 15.3119 8.16487 14.1984 7.05137C13.0849 5.93788 11.5747 5.31232 10 5.31232C8.42528 5.31232 6.91505 5.93788 5.80155 7.05137C4.68806 8.16487 4.0625 9.6751 4.0625 11.2498C4.0625 11.3545 4.0625 11.4584 4.07109 11.5623H1.25C1.00136 11.5623 0.762903 11.6611 0.587087 11.8369C0.411272 12.0127 0.3125 12.2512 0.3125 12.4998C0.3125 12.7485 0.411272 12.9869 0.587087 13.1627C0.762903 13.3385 1.00136 13.4373 1.25 13.4373H18.75C18.9986 13.4373 19.2371 13.3385 19.4129 13.1627C19.5887 12.9869 19.6875 12.7485 19.6875 12.4998C19.6875 12.2512 19.5887 12.0127 19.4129 11.8369C19.2371 11.6611 18.9986 11.5623 18.75 11.5623ZM5.9375 11.2498C5.9375 10.1724 6.36551 9.13906 7.12738 8.3772C7.88925 7.61533 8.92256 7.18732 10 7.18732C11.0774 7.18732 12.1108 7.61533 12.8726 8.3772C13.6345 9.13906 14.0625 10.1724 14.0625 11.2498C14.0625 11.3545 14.057 11.4584 14.0492 11.5623H5.95078C5.94297 11.4584 5.9375 11.3545 5.9375 11.2498ZM17.1875 15.6248C17.1875 15.8735 17.0887 16.1119 16.9129 16.2877C16.7371 16.4635 16.4986 16.5623 16.25 16.5623H3.75C3.50136 16.5623 3.2629 16.4635 3.08709 16.2877C2.91127 16.1119 2.8125 15.8735 2.8125 15.6248C2.8125 15.3762 2.91127 15.1377 3.08709 14.9619C3.2629 14.7861 3.50136 14.6873 3.75 14.6873H16.25C16.4986 14.6873 16.7371 14.7861 16.9129 14.9619C17.0887 15.1377 17.1875 15.3762 17.1875 15.6248ZM0.985937 7.20373C1.06456 6.968 1.23356 6.77313 1.45579 6.66195C1.67802 6.55076 1.9353 6.53235 2.17109 6.61076L3.10859 6.92326C3.22666 6.96111 3.33605 7.02201 3.43042 7.10243C3.52479 7.18285 3.60227 7.28119 3.65838 7.39176C3.71448 7.50233 3.7481 7.62293 3.75728 7.74657C3.76646 7.87022 3.75102 7.99446 3.71186 8.1121C3.6727 8.22974 3.61059 8.33845 3.52913 8.43192C3.44767 8.5254 3.34848 8.60178 3.2373 8.65666C3.12612 8.71154 3.00515 8.74382 2.88141 8.75163C2.75767 8.75944 2.63361 8.74263 2.51641 8.70216L1.57891 8.38966C1.4621 8.35074 1.3541 8.28918 1.26108 8.20851C1.16806 8.12784 1.09185 8.02964 1.03678 7.91951C0.981718 7.80939 0.948887 7.68949 0.940163 7.56668C0.93144 7.44386 0.946994 7.32053 0.985937 7.20373ZM5.36094 3.42169C5.31834 3.30404 5.29973 3.17905 5.30619 3.0541C5.31266 2.92914 5.34407 2.80674 5.39858 2.69411C5.4531 2.58148 5.5296 2.48091 5.62359 2.39831C5.71759 2.31572 5.82716 2.25277 5.94586 2.21319C6.06456 2.1736 6.18998 2.15818 6.31473 2.16783C6.43949 2.17748 6.56105 2.212 6.67225 2.26937C6.78345 2.32673 6.88204 2.40578 6.96221 2.50185C7.04239 2.59791 7.10252 2.70906 7.13906 2.82873L7.45156 3.76623C7.49416 3.88388 7.51277 4.00887 7.50631 4.13382C7.49984 4.25878 7.46843 4.38118 7.41392 4.49381C7.3594 4.60644 7.2829 4.70701 7.18891 4.78961C7.09491 4.8722 6.98534 4.93515 6.86664 4.97473C6.74794 5.01432 6.62252 5.02974 6.49777 5.02009C6.37301 5.01044 6.25145 4.97592 6.14025 4.91855C6.02905 4.86119 5.93046 4.78214 5.85029 4.68607C5.77011 4.59001 5.70998 4.47886 5.67344 4.35919L5.36094 3.42169ZM16.2984 8.1092C16.2595 7.99239 16.2439 7.86906 16.2527 7.74624C16.2614 7.62343 16.2942 7.50353 16.3493 7.39341C16.4043 7.28328 16.4806 7.18508 16.5736 7.10441C16.6666 7.02374 16.7746 6.96218 16.8914 6.92326L17.8289 6.61076C18.064 6.53539 18.3193 6.55577 18.5394 6.66747C18.7595 6.77917 18.9267 6.97317 19.0047 7.20738C19.0826 7.44158 19.0651 7.69709 18.9558 7.91843C18.8466 8.13978 18.6544 8.30911 18.4211 8.38966L17.4836 8.70216C17.2478 8.78057 16.9905 8.76216 16.7683 8.65097C16.5461 8.53979 16.3771 8.34492 16.2984 8.1092ZM12.5484 3.76623L12.8609 2.82873C12.8975 2.70906 12.9576 2.59791 13.0378 2.50185C13.118 2.40578 13.2166 2.32673 13.3278 2.26937C13.439 2.212 13.5605 2.17748 13.6853 2.16783C13.81 2.15818 13.9354 2.1736 14.0541 2.21319C14.1728 2.25277 14.2824 2.31572 14.3764 2.39831C14.4704 2.48091 14.5469 2.58148 14.6014 2.69411C14.6559 2.80674 14.6873 2.92914 14.6938 3.0541C14.7003 3.17905 14.6817 3.30404 14.6391 3.42169L14.3266 4.35919C14.29 4.47886 14.2299 4.59001 14.1497 4.68607C14.0695 4.78214 13.9709 4.86119 13.8597 4.91855C13.7485 4.97592 13.627 5.01044 13.5022 5.02009C13.3775 5.02974 13.2521 5.01432 13.1334 4.97473C13.0147 4.93515 12.9051 4.8722 12.8111 4.78961C12.7171 4.70701 12.6406 4.60644 12.5861 4.49381C12.5316 4.38118 12.5002 4.25878 12.4937 4.13382C12.4872 4.00887 12.5058 3.88388 12.5484 3.76623Z" fill="#343330"/>
</svg>
