<svg width="20" height="20" viewBox="0 0 20 20" fill="none" xmlns="http://www.w3.org/2000/svg">
<path d="M12.8126 5.31264C12.327 5.31268 11.843 5.36905 11.3704 5.48061C11.2298 5.27521 11.0731 5.08137 10.9017 4.90092L11.4931 4.05561C11.6357 3.85193 11.6916 3.59992 11.6485 3.35503C11.6053 3.11013 11.4667 2.8924 11.263 2.74975C11.0593 2.60709 10.8073 2.55119 10.5624 2.59433C10.3175 2.63748 10.0998 2.77615 9.95713 2.97982L9.36494 3.82826C8.81566 3.58775 8.22525 3.45513 7.62588 3.43764L7.44619 2.42201C7.39869 2.18129 7.2587 1.96878 7.05628 1.83011C6.85386 1.69143 6.60514 1.63764 6.36351 1.68028C6.12187 1.72293 5.90659 1.8586 5.76386 2.05818C5.62113 2.25777 5.56234 2.50535 5.6001 2.74779L5.77979 3.76342C5.22268 3.98482 4.71321 4.31102 4.279 4.72436L3.43057 4.12982C3.22689 3.98717 2.97488 3.93126 2.72999 3.97441C2.48509 4.01756 2.26736 4.15622 2.12471 4.3599C1.98205 4.56358 1.92615 4.81559 1.96929 5.06048C2.01244 5.30538 2.15111 5.5231 2.35478 5.66576L3.20322 6.25873C2.96206 6.80752 2.82941 7.39781 2.8126 7.99701L1.79697 8.1767C1.56591 8.21718 1.35842 8.34281 1.21546 8.52879C1.0725 8.71478 1.00445 8.9476 1.02476 9.1813C1.04507 9.415 1.15226 9.6326 1.32516 9.79113C1.49806 9.94967 1.72411 10.0376 1.95869 10.0376C2.01368 10.0375 2.06856 10.0328 2.12275 10.0236L3.13838 9.84389C3.21507 10.0385 3.30486 10.2278 3.40713 10.4103C2.81401 11.0291 2.41574 11.8085 2.26175 12.6517C2.10777 13.4949 2.20487 14.3647 2.54099 15.1532C2.87711 15.9417 3.43744 16.6141 4.1524 17.0869C4.86736 17.5597 5.70545 17.8121 6.5626 17.8126H12.8126C14.4702 17.8126 16.0599 17.1542 17.232 15.9821C18.4041 14.81 19.0626 13.2202 19.0626 11.5626C19.0626 9.90503 18.4041 8.31532 17.232 7.14322C16.0599 5.97112 14.4702 5.31264 12.8126 5.31264ZM7.5001 5.31264C7.88849 5.31295 8.27262 5.3937 8.62826 5.54981C8.98391 5.70592 9.30336 5.93399 9.5665 6.21967C8.45439 6.89418 7.57919 7.89741 7.06182 9.09076C6.89608 9.07196 6.7294 9.06257 6.5626 9.06264C6.01916 9.06258 5.48048 9.16406 4.97432 9.36186C4.76439 8.93309 4.66707 8.45794 4.6915 7.98117C4.71594 7.50439 4.86134 7.04168 5.114 6.63663C5.36667 6.23157 5.71828 5.89749 6.13572 5.66586C6.55316 5.43423 7.0227 5.31267 7.5001 5.31264ZM12.8126 15.9376H6.5626C5.89956 15.9376 5.26367 15.6742 4.79483 15.2054C4.32599 14.7366 4.0626 14.1007 4.0626 13.4376C4.0626 12.7746 4.32599 12.1387 4.79483 11.6699C5.26367 11.201 5.89956 10.9376 6.5626 10.9376H6.58447C6.57588 11.0236 6.56885 11.1095 6.56416 11.1954C6.54966 11.4441 6.63452 11.6883 6.80008 11.8744C6.96564 12.0605 7.19833 12.1731 7.44697 12.1876C7.69561 12.2021 7.93983 12.1173 8.1259 11.9517C8.31197 11.7862 8.42466 11.5535 8.43916 11.3048C8.45569 11.0145 8.50123 10.7267 8.5751 10.4454L8.58682 10.4025C8.80221 9.61497 9.23344 8.90335 9.83183 8.34793C10.4302 7.79251 11.172 7.41541 11.9733 7.25919C12.7747 7.10297 13.6037 7.17385 14.3669 7.46383C15.1301 7.75381 15.7971 8.25135 16.2925 8.90028C16.7879 9.54922 17.0921 10.3237 17.1707 11.1364C17.2493 11.949 17.0992 12.7674 16.7373 13.4993C16.3754 14.2311 15.8161 14.8472 15.1226 15.2781C14.4291 15.709 13.629 15.9374 12.8126 15.9376Z" fill="#343330"/>
</svg>
